<svg width="1024" height="1024" viewBox="0 0 512 512" fill="none" xmlns="http://www.w3.org/2000/svg">
    <path d="M280 100C280 70 260 50 230 50C200 50 180 70 180 100V130L170 130C160 130 150 140 150 150C150 160 160 170 170 170H180V320C180 380 220 420 280 420C340 420 380 380 380 320V290L390 290C400 290 410 280 410 270C410 260 400 250 390 250H380V100C380 100 280 100 280 100Z" fill="white" fill-opacity="0.2"/>

    <path d="M140 280 L190 280 L240 420 L400 120 H460" stroke="white" stroke-width="40" stroke-linecap="round" stroke-linejoin="round"/>
    <text x="280" y="320" font-family="Arial, sans-serif" font-weight="bold" font-size="180" fill="white">x</text>
</svg>